<svg width="128" height="128" viewBox="0 0 128 128" fill="none" xmlns="http://www.w3.org/2000/svg">
  <defs>
    <linearGradient id="bg" x1="18" y1="14" x2="110" y2="118" gradientUnits="userSpaceOnUse">
      <stop stop-color="#222222"/>
      <stop offset="1" stop-color="#0D0D0D"/>
    </linearGradient>
    <linearGradient id="spine" x1="30" y1="20" x2="50" y2="104" gradientUnits="userSpaceOnUse">
      <stop stop-color="#4589FF"/>
      <stop offset="1" stop-color="#0F62FE"/>
    </linearGradient>
    <filter id="shadow" x="18" y="16" width="92" height="96" filterUnits="userSpaceOnUse" color-interpolation-filters="sRGB">
      <feFlood flood-opacity="0" result="BackgroundImageFix"/>
      <feColorMatrix in="SourceAlpha" type="matrix" values="0 0 0 0 0 0 0 0 0 0 0 0 0 0 0 0 0 0 127 0" result="hardAlpha"/>
      <feOffset dy="4"/>
      <feGaussianBlur stdDeviation="4"/>
      <feComposite in2="hardAlpha" operator="out"/>
      <feColorMatrix type="matrix" values="0 0 0 0 0 0 0 0 0 0 0 0 0 0 0 0 0 0 0.28 0"/>
      <feBlend mode="normal" in2="BackgroundImageFix" result="effect1_dropShadow_1_2"/>
      <feBlend mode="normal" in="SourceGraphic" in2="effect1_dropShadow_1_2" result="shape"/>
    </filter>
  </defs>

  <rect x="8" y="8" width="112" height="112" rx="28" fill="url(#bg)"/>
  <rect x="8.5" y="8.5" width="111" height="111" rx="27.5" stroke="white" stroke-opacity="0.08"/>

  <g filter="url(#shadow)">
    <rect x="28" y="20" width="72" height="84" rx="16" fill="#F4F4F4"/>
    <path d="M28 36C28 27.1634 35.1634 20 44 20H48V104H44C35.1634 104 28 96.8366 28 88V36Z" fill="url(#spine)"/>
    <path d="M48 36H52" stroke="#D0D0D0" stroke-width="2" stroke-linecap="round"/>
    <path d="M48 48H52" stroke="#D0D0D0" stroke-width="2" stroke-linecap="round"/>
    <path d="M48 60H52" stroke="#D0D0D0" stroke-width="2" stroke-linecap="round"/>
    <path d="M48 72H52" stroke="#D0D0D0" stroke-width="2" stroke-linecap="round"/>

    <path d="M68 42C69.6569 42 71 43.3431 71 45V65H79.5C80.7124 65 81.8168 65.6901 82.3441 66.7764C82.8715 67.8627 82.7288 69.155 81.9776 70.1006L69.4776 85.8298C68.9083 86.5463 68.0419 86.9648 67.1268 86.9648C66.2117 86.9648 65.3453 86.5463 64.776 85.8298L52.276 70.1006C51.5249 69.155 51.3821 67.8627 51.9095 66.7764C52.4368 65.6901 53.5412 65 54.7537 65H63V45C63 43.3431 64.3431 42 66 42H68Z" fill="#0F62FE"/>
    <rect x="52" y="90" width="30" height="6" rx="3" fill="#0F62FE"/>
  </g>
</svg>
